# xmcd CD database file
#
# Track frame offsets:
#	150
#	16647
#	33943
#	54636
#	70130
#	87197
#	106680
#	119239
#	132933
#	151423
#	168428
#	189053
#
# Disc length: 2749 seconds
#
# Revision: 0
# Processed by: cddbd v1.4PL0 Copyright (c) Steve Scherf et al.
# Submitted via: Feurio! 1.63 - http://www.feurio.com
#
DISCID=900abb0c
DTITLE=최용범 - 스님말씀의 노래
DYEAR=1900
DGENRE=
TTITLE0=이생이 어떤가
TTITLE1=지장보살님
TTITLE2=님의 웃음
TTITLE3=문수보살님
TTITLE4=그 소식
TTITLE5=약사 여래불
TTITLE6=한발 나서면
TTITLE7=외도를 조심하세
TTITLE8=관세음 보살님
TTITLE9=파순
TTITLE10=님의 웃음MR
TTITLE11=지장보살님MR
EXTD=
EXTT0=
EXTT1=
EXTT2=
EXTT3=
EXTT4=
EXTT5=
EXTT6=
EXTT7=
EXTT8=
EXTT9=
EXTT10=
EXTT11=
PLAYORDER=
